<svg width="60" height="60" viewBox="0 0 60 60" fill="none" xmlns="http://www.w3.org/2000/svg">
<path d="M53.0899 42.3424C52.7609 42.206 52.3821 42.2814 52.1302 42.5332L42.506 52.1574C42.2542 52.4093 42.1788 52.7881 42.3152 53.1171C42.4514 53.4463 42.7727 53.6607 43.1289 53.6607H52.753C53.2394 53.6607 53.6337 53.2666 53.6337 52.7801V43.1559C53.6335 42.7998 53.419 42.4787 53.0899 42.3424ZM45.2546 51.8995L51.8721 45.2821V51.8995H45.2546Z" fill="#B86B77"/>
<path d="M59.4564 28.2266C59.1273 28.0902 58.7486 28.1655 58.4966 28.4174L55.859 31.0549V13.1216C55.859 12.6351 55.4647 12.241 54.9784 12.241H48.2118L50.6682 9.78472C50.6685 9.78432 50.6688 9.78384 50.6692 9.78352L53.0359 7.4168C53.543 6.90973 53.8222 6.23519 53.8222 5.51801C53.8222 4.80082 53.543 4.12652 53.0359 3.61921L50.2991 0.882423C49.792 0.37535 49.1175 0.0960922 48.4003 0.0960922C47.6831 0.0960922 47.0087 0.37535 46.5015 0.882423L44.1336 3.25031L41.2724 6.11156L35.1431 12.2408H7.80703V3.52851C7.80703 3.04207 7.4127 2.64785 6.92637 2.64785C3.10722 2.64809 0 5.75508 0 9.57448V46.979C0 47.0441 0.0075 47.1074 0.0208594 47.1683C0.1425 48.7889 0.843632 50.2946 2.01539 51.4377C3.26789 52.6593 4.92129 53.332 6.67114 53.332H33.5818L28.5136 58.4002C28.2618 58.6522 28.1864 59.0309 28.3227 59.36C28.459 59.6891 28.7802 59.9037 29.1363 59.9037H59.1194C59.6057 59.9037 60 59.5094 60 59.023V29.0402C60 28.6841 59.7853 28.3629 59.4564 28.2266ZM47.7472 2.12801C48.1072 1.76777 48.6938 1.76777 49.0538 2.12801L51.7906 4.86492C52.1509 5.22504 52.1509 5.81133 51.7906 6.17156L50.0456 7.91672L46.0019 3.87316L47.7472 2.12801ZM44.7565 5.11863L48.8 9.16208L47.1842 10.778L43.1408 6.73453L44.7565 5.11863ZM58.2389 38.9358H56.6141C56.1277 38.9358 55.7334 39.33 55.7334 39.8164C55.7334 40.3029 56.1277 40.6971 56.6141 40.6971H58.2389V43.351H56.6141C56.1277 43.351 55.7334 43.7451 55.7334 44.2316C55.7334 44.7181 56.1277 45.1122 56.6141 45.1122H58.2389V47.766H56.6141C56.1277 47.766 55.7334 48.1602 55.7334 48.6466C55.7334 49.1331 56.1277 49.5273 56.6141 49.5273H58.2389V52.1811H56.6141C56.1277 52.1811 55.7334 52.5754 55.7334 53.0618C55.7334 53.5482 56.1277 53.9425 56.6141 53.9425H58.2389V58.1427H31.2623L40.1578 49.2474C40.5018 48.9033 40.5018 48.3458 40.1578 48.0018C40.1183 47.9624 40.0759 47.9282 40.0315 47.8977C39.6886 47.6629 39.2168 47.6974 38.9122 48.0018L35.3432 51.571H6.67125C4.00031 51.571 1.85016 49.4857 1.76554 46.8196C1.77058 46.6522 1.78359 46.4863 1.80446 46.3222C1.80457 46.3213 1.80469 46.3203 1.80481 46.3194C1.81465 46.2414 1.82649 46.1639 1.83996 46.0868C1.84149 46.078 1.84313 46.0692 1.84465 46.0604C1.85695 45.9916 1.87078 45.9232 1.8859 45.855C1.89012 45.836 1.89457 45.817 1.89902 45.7982C1.91238 45.7405 1.9268 45.6832 1.94226 45.6262C1.9507 45.5952 1.9595 45.5646 1.96851 45.5338C1.98141 45.489 1.99477 45.4444 2.00894 45.4002C2.02313 45.356 2.03824 45.3123 2.05359 45.2686C2.06426 45.238 2.07481 45.2074 2.08629 45.177C2.10774 45.1194 2.13047 45.0623 2.1539 45.0058C2.16058 44.9894 2.16715 44.973 2.17406 44.9566C2.20418 44.8863 2.23547 44.8168 2.26851 44.7482C2.26992 44.7452 2.27121 44.7423 2.27262 44.7394C2.96145 43.3139 4.28625 42.2511 5.87614 41.9214C5.88058 41.9204 5.88504 41.9194 5.8895 41.9184C5.96238 41.9035 6.03598 41.8908 6.11004 41.879C6.12234 41.877 6.13465 41.8745 6.14718 41.8726C6.2141 41.8624 6.28172 41.8545 6.34934 41.8468C6.36832 41.8447 6.38718 41.8418 6.40629 41.8399C6.47156 41.8334 6.53742 41.829 6.60328 41.8249C6.62414 41.8236 6.645 41.8214 6.66586 41.8203C6.75211 41.816 6.83906 41.8138 6.92637 41.8138C7.4127 41.8138 7.80703 41.4196 7.80703 40.9331V34.5477C7.80703 34.0613 7.4127 33.667 6.92637 33.667C6.44004 33.667 6.0457 34.0613 6.0457 34.5477V40.1079C4.55859 40.296 3.17824 40.9593 2.08981 42.0222C1.97531 42.1339 1.8668 42.2502 1.7611 42.3683V9.57448C1.7611 7.02668 3.6157 4.90359 6.04558 4.48429V13.1216V31.0251V31.0253C6.04558 31.5116 6.43992 31.9059 6.92625 31.9059C7.41258 31.9059 7.80691 31.5116 7.80691 31.0253V31.0251V14.0022H33.3819L28.5134 18.8707C28.1695 19.2148 28.1695 19.7722 28.5134 20.1162C28.8574 20.46 29.415 20.46 29.7588 20.1162L36.1306 13.7443C36.1309 13.7441 36.131 13.7438 36.1313 13.7438L41.8951 7.97988L45.9384 12.0234L45.4641 12.4978C45.4637 12.4982 45.4633 12.4985 45.4629 12.4989L27.7057 30.2563L23.6622 26.2129L27.1624 22.7127C27.5064 22.3686 27.5064 21.8112 27.1624 21.4672C26.8185 21.1234 26.2609 21.1234 25.917 21.4672L21.7941 25.5901C21.772 25.6122 21.7514 25.6354 21.7321 25.6594C21.7256 25.6674 21.7199 25.6759 21.7138 25.6842C21.7014 25.7007 21.6892 25.7174 21.6778 25.7347C21.6714 25.7448 21.6655 25.7551 21.6594 25.7655C21.6497 25.7819 21.6403 25.7986 21.6318 25.8156C21.6262 25.8266 21.6211 25.8378 21.6159 25.8492C21.6081 25.8665 21.6008 25.884 21.5942 25.9016C21.5918 25.9078 21.5887 25.9137 21.5866 25.9198L19.8708 30.7802L18.701 34.0942C18.6855 34.1382 18.6744 34.183 18.6661 34.2281H15.7374C15.251 34.2281 14.8567 34.6223 14.8567 35.1088C14.8567 35.5952 15.251 35.9894 15.7374 35.9894H40.1257C40.6122 35.9894 41.0064 35.5952 41.0064 35.1088C41.0064 34.6223 40.6122 34.2281 40.1257 34.2281H22.6281L27.9988 32.3322C28.0033 32.3306 28.0074 32.3284 28.0119 32.3267C28.0328 32.319 28.0533 32.3103 28.0735 32.3011C28.0817 32.2974 28.0898 32.2938 28.0976 32.2899C28.1186 32.2794 28.1394 32.2678 28.1598 32.2554C28.1664 32.2514 28.1732 32.2478 28.1796 32.2437C28.2008 32.2301 28.2214 32.2152 28.2417 32.1995C28.2467 32.1956 28.252 32.1922 28.257 32.1882C28.2814 32.1686 28.3054 32.1474 28.3282 32.1246L46.4506 14.0024H54.0976V32.8164L41.5004 45.4137C41.1565 45.7578 41.1565 46.3152 41.5004 46.6591C41.5218 46.6806 41.5442 46.7007 41.5674 46.7196C41.7288 46.8512 41.9261 46.917 42.1232 46.917C42.3202 46.917 42.5176 46.8512 42.679 46.7196C42.7021 46.7009 42.7245 46.6806 42.7459 46.6591C42.7462 46.6588 42.7459 46.6591 42.7462 46.6588L58.2389 31.166V38.9358ZM26.095 31.1362L23.5724 32.0267L21.8917 30.3461L22.7822 27.8234L26.095 31.1362Z" fill="#B86B77"/>
</svg>
