<svg width="60" height="60" viewBox="0 0 60 60" fill="none" xmlns="http://www.w3.org/2000/svg">
<g clip-path="url(#clip0)">
<path d="M24.2498 0C20.9393 0 18.2461 2.6932 18.2461 6.00375C18.2461 9.31432 20.9394 12.0075 24.2498 12.0075C27.5604 12.0075 30.2536 9.31432 30.2536 6.00375C30.2536 2.6932 27.5604 0 24.2498 0ZM24.2498 10.2496C21.9086 10.2496 20.004 8.34496 20.004 6.00375C20.004 3.66258 21.9088 1.75793 24.2498 1.75793C26.591 1.75793 28.4957 3.6627 28.4957 6.00375C28.4957 8.3448 26.591 10.2496 24.2498 10.2496Z" fill="#B86B77"/>
<path d="M46.7579 36.5947C46.4113 36.2551 45.8548 36.2603 45.515 36.607L38.1374 44.131L35.5321 41.405C35.1967 41.054 34.6403 41.0414 34.2893 41.377C33.9385 41.7123 33.9258 42.2686 34.2612 42.6197L37.4939 46.002C37.8368 46.361 38.4091 46.3647 38.757 46.0101L46.7702 37.8378C47.11 37.491 47.1045 36.9346 46.7579 36.5947Z" fill="#B86B77"/>
<path d="M51.6075 42.4656C51.1318 42.3713 50.6687 42.6802 50.5742 43.1565C49.5664 48.2275 45.9881 52.5603 41.2354 54.4643C40.7848 54.6448 40.5659 55.1565 40.7464 55.6071C40.9268 56.0578 41.4386 56.2766 41.8892 56.0962C47.3608 53.9042 51.197 49.0413 52.2982 43.4991C52.393 43.0229 52.0835 42.5602 51.6075 42.4656Z" fill="#B86B77"/>
<path d="M50.0988 28.9211C47.7475 30.2494 45.5298 30.2938 43.5066 29.0528C41.8983 28.0665 40.997 26.6217 40.961 26.5633C40.6649 26.0785 40.1591 25.7806 39.5958 25.7534C37.9606 21.175 35.2314 17.9947 33.1754 16.1014C31.8642 14.8938 30.1622 14.2289 28.383 14.2289C27.5285 14.2289 20.9489 14.2289 20.117 14.2289C18.2173 14.2289 16.4092 14.9427 15.0258 16.2387C12.1774 18.9073 7.39465 24.7371 7.36664 33.797C7.36066 35.6966 8.86888 37.2837 10.7286 37.3349C12.6711 37.3917 14.285 35.8327 14.285 33.877C14.285 30.4769 15.24 27.2762 17.0674 24.4922V56.9505C17.0674 58.632 18.4355 60.0001 20.117 60.0001H22.0796C22.928 60.0001 23.6968 59.6518 24.2502 59.0906C24.8035 59.6518 25.5722 60.0001 26.4207 60.0001H28.3833C30.0648 60.0001 31.4328 58.632 31.4328 56.9505V52.3167C33.0588 53.9502 34.9947 55.239 37.1339 56.0959C37.5849 56.2766 38.0964 56.0573 38.2767 55.6069C38.4573 55.1563 38.2383 54.6447 37.7877 54.4641C32.1287 52.1969 28.1479 46.5762 28.1479 40.0821V30.5013C31.7065 32.4722 35.1519 31.9914 37.9666 29.3648C38.6123 28.7716 39.1386 28.1438 39.4942 27.586C39.4997 27.5775 39.507 27.5669 39.5118 27.5594C39.7642 27.9493 40.8188 29.4662 42.5881 30.5514C44.3672 31.6429 47.2438 32.5133 50.8758 30.5011V39.2259C50.8758 39.7114 51.2692 40.1048 51.7546 40.1048C52.24 40.1048 52.6335 39.7114 52.6335 39.2259V30.4002C52.6332 29.1011 51.232 28.2814 50.0988 28.9211ZM25.7954 15.9869L24.743 17.237C24.4852 17.543 24.0148 17.543 23.757 17.237L22.7044 15.9869H25.7954ZM31.4326 29.872V24.7197C32.4452 26.3097 33.171 28.0234 33.6006 29.8418C32.896 29.9962 32.1746 30.0058 31.4326 29.872ZM35.2527 29.1962C34.5467 26.3752 33.1931 23.7899 31.2194 21.4979C30.688 20.8809 29.6743 21.2601 29.6743 22.0714V29.3042C29.2957 29.1318 28.8208 28.868 28.8078 28.8619C27.691 28.3363 26.3893 29.1498 26.3893 30.4004V30.4306V40.0823C26.3893 43.7618 27.527 47.2807 29.6743 50.2505V56.9507H29.6748C29.6748 57.6629 29.0954 58.2423 28.3831 58.2423H26.4206C25.7084 58.2423 25.129 57.6631 25.129 56.9507V38.8874C25.129 38.4018 24.7354 38.0085 24.25 38.0085C23.7646 38.0085 23.3711 38.4018 23.3711 38.8874V56.9506C23.3711 57.6627 22.7918 58.2422 22.0794 58.2422H20.117C19.4048 58.2422 18.8253 57.663 18.8253 56.9506V21.8987C18.8253 21.0902 17.8209 20.7123 17.2872 21.3173C14.1729 24.8465 12.5269 29.1897 12.5269 33.8771C12.5269 34.8234 11.7542 35.601 10.7768 35.5778C9.86272 35.5526 9.12144 34.7562 9.12448 33.8026C9.15048 25.4028 13.5859 19.9966 16.2277 17.5218C17.2842 16.532 18.6652 15.9869 20.1168 15.9869H20.4064L22.4122 18.369C23.3723 19.5098 25.1286 19.5082 26.0875 18.369L28.0932 15.9869H28.3828C29.7198 15.9869 30.9988 16.4868 31.9844 17.3944C33.9315 19.1876 36.5298 22.2226 38.0331 26.607C37.3637 27.617 36.3429 28.5809 35.2527 29.1962Z" fill="#B86B77"/>
</g>
<defs>
<clipPath id="clip0">
<rect width="60" height="60" fill="white"/>
</clipPath>
</defs>
</svg>
