<svg width="60" height="60" viewBox="0 0 60 60" fill="none" xmlns="http://www.w3.org/2000/svg">
<path d="M49 0H11C8.24 0.00325 6.00325 2.24 6 5V32C6.00325 34.76 8.24 36.9967 11 37H24.674L23.246 42H20V44H40V42H36.754L35.326 37H49C51.76 36.9967 53.9968 34.76 54 32V5C53.9968 2.24 51.76 0.00325 49 0ZM25.326 42L26.754 37H33.246L34.674 42H25.326ZM52 32C52 33.6569 50.6569 35 49 35H11C9.34312 35 8 33.6569 8 32V30H52V32ZM52 28H8V5C8 3.34313 9.34312 2 11 2H49C50.6569 2 52 3.34313 52 5V28Z" fill="#B86B77"/>
<path d="M38 46H10C9.44776 46 9 46.4478 9 47V59C9 59.5522 9.44776 60 10 60H38C38.5522 60 39 59.5522 39 59V47C39 46.4478 38.5522 46 38 46ZM37 58H11V48H37V58Z" fill="#B86B77"/>
<path d="M15 54H13V56H15V54Z" fill="#B86B77"/>
<path d="M15 50H13V52H15V50Z" fill="#B86B77"/>
<path d="M19 50H17V52H19V50Z" fill="#B86B77"/>
<path d="M23 50H21V52H23V50Z" fill="#B86B77"/>
<path d="M31 50H29V52H31V50Z" fill="#B86B77"/>
<path d="M27 50H25V52H27V50Z" fill="#B86B77"/>
<path d="M35 54H33V56H35V54Z" fill="#B86B77"/>
<path d="M35 50H33V52H35V50Z" fill="#B86B77"/>
<path d="M31 54H17V56H31V54Z" fill="#B86B77"/>
<path d="M46 46C43.2386 46 41 48.2386 41 51V55C41 57.7614 43.2386 60 46 60C48.7614 60 51 57.7614 51 55V51C51 48.2386 48.7614 46 46 46ZM49 55C49 56.6569 47.6569 58 46 58C44.3431 58 43 56.6569 43 55V51C43 49.3431 44.3431 48 46 48C47.6569 48 49 49.3431 49 51V55Z" fill="#B86B77"/>
<path d="M47 50H45V52H47V50Z" fill="#B86B77"/>
<path d="M31.0342 8.746L27.0304 22.738L28.9523 23.288L32.9561 9.296L31.0342 8.746Z" fill="#B86B77"/>
<path d="M24.64 11.768L23.36 10.232L17.36 15.232C16.9358 15.5858 16.8787 16.2162 17.2325 16.6405C17.2711 16.6868 17.3138 16.7295 17.36 16.768L23.36 21.768L24.64 20.232L19.562 16L24.64 11.768Z" fill="#B86B77"/>
<path d="M42.7675 15.3595C42.7289 15.3133 42.6862 15.2705 42.64 15.232L36.64 10.232L35.36 11.768L40.438 16L35.36 20.232L36.64 21.768L42.64 16.768C43.0642 16.4142 43.1213 15.7838 42.7675 15.3595Z" fill="#B86B77"/>
</svg>
