<svg width="60" height="60" viewBox="0 0 60 60" fill="none" xmlns="http://www.w3.org/2000/svg">
<path d="M30 0C13.4317 0 0 13.4317 0 30C0 46.5683 13.4317 60 30 60C46.5683 60 60 46.5683 60 30C59.9814 13.4394 46.5606 0.0185547 30 0ZM30 58C14.5362 58 2 45.4638 2 30C2 14.5362 14.5362 2 30 2C45.4638 2 58 14.5362 58 30C57.9824 45.4566 45.4566 57.9824 30 58Z" fill="#B86B77"/>
<path d="M52.9702 28.8902V28.77C52.9492 28.4502 52.9282 28.1289 52.897 27.8208C52.8662 27.5132 52.834 27.1958 52.7969 26.9018C52.7632 26.6441 52.729 26.3862 52.685 26.2022C52.6421 25.9018 52.585 25.6021 52.521 25.2862L52.4912 25.1518C52.439 24.9141 52.3838 24.6699 52.3271 24.4522C52.1729 23.8198 51.9751 23.1518 51.727 22.438C51.6602 22.2261 51.583 22.0258 51.5142 21.8501C51.4141 21.5782 51.3081 21.3071 51.1929 21.0498C51.045 20.7002 50.893 20.3628 50.7402 20.0498C50.6001 19.75 50.4492 19.457 50.2988 19.188C49.9336 18.4883 49.5278 17.8096 49.085 17.1558L49.065 17.1279V17.123C49.0459 17.0952 49.0259 17.0689 49.0058 17.04C48.8691 16.8398 48.73 16.6402 48.5879 16.4492L48.4482 16.2568C48.2549 15.9888 48.0478 15.73 47.771 15.4009C47.7256 15.3501 47.6831 15.2964 47.6441 15.2402C47.4868 15.0532 47.3198 14.8638 47.1441 14.665C47.084 14.6001 47.019 14.5371 46.959 14.4731L48.7138 12.7178L47.2998 11.3042L45.5439 13.0601C45.4649 12.9849 45.393 12.9111 45.312 12.8369C45.1338 12.6802 44.9561 12.522 44.7339 12.3369C44.7129 12.3218 44.691 12.3062 44.6621 12.2832C44.6328 12.2598 44.5982 12.23 44.5478 12.1831C44.289 11.9668 44.0298 11.7622 43.7808 11.583L43.7661 11.5718L43.5659 11.4267C43.334 11.2578 43.104 11.0908 42.8662 10.9331C42.2173 10.4926 41.5434 10.0898 40.8491 9.72608C40.5581 9.56496 40.2671 9.41312 39.9932 9.28616C39.6538 9.1172 39.315 8.9692 38.979 8.82616C38.707 8.70608 38.435 8.5972 38.1572 8.49704C37.9668 8.42384 37.7759 8.35104 37.601 8.29688C36.8579 8.04 36.1899 7.8418 35.5771 7.69678C35.3189 7.62891 35.0518 7.5708 34.7129 7.49708C34.4131 7.43408 34.1128 7.37891 33.877 7.34815C33.6299 7.29395 33.3828 7.26124 33.1118 7.22608C32.812 7.18408 32.5 7.15284 32.1822 7.12012C31.8638 7.08692 31.5488 7.06885 31.1699 7.04785C30.4121 7.00684 29.6528 7.00684 28.895 7.04785H28.7822C28.461 7.06885 28.1392 7.08984 27.8198 7.1211C27.501 7.15186 27.1982 7.18408 26.873 7.229C26.627 7.26124 26.3799 7.29395 26.2031 7.33496C25.9028 7.37891 25.603 7.43506 25.2168 7.51514C24.958 7.57324 24.6909 7.63086 24.4512 7.69483C23.8198 7.8462 23.1509 8.04392 22.436 8.29496C22.2358 8.35888 22.043 8.43216 21.8472 8.5068C21.5752 8.60696 21.3032 8.71384 21.0469 8.82912C20.6958 8.97704 20.357 9.12888 20.0469 9.28224C19.747 9.42088 19.455 9.57328 19.1841 9.72312C19.0782 9.7788 18.9751 9.84176 18.8701 9.89896C18.2832 10.2192 17.7041 10.564 17.1538 10.937H17.1402L17.0308 11.0151C16.831 11.1484 16.6372 11.2851 16.4492 11.4258L16.2549 11.5678C16.1201 11.668 15.9868 11.7681 15.8491 11.874C15.711 11.98 15.565 12.104 15.4038 12.2402C15.3838 12.2598 15.3618 12.2783 15.3389 12.295L15.2388 12.3721C15.061 12.521 14.8828 12.6792 14.6641 12.8721C14.043 13.4419 13.4399 14.0439 12.8638 14.6718C12.6958 14.8598 12.5288 15.0488 12.3398 15.2778C12.2915 15.3447 12.2383 15.4077 12.1811 15.4668C11.9658 15.7261 11.7612 15.9849 11.581 16.2329L11.5718 16.2442V16.251L11.4302 16.4448C11.2612 16.6782 11.0928 16.9092 10.9302 17.145C10.4898 17.793 10.0869 18.4658 9.72312 19.1602C9.562 19.4512 9.41112 19.7422 9.2832 20.0181C9.11376 20.357 8.96584 20.6938 8.82176 21.0322C8.70312 21.3042 8.59424 21.5752 8.50584 21.8218C8.42824 22.022 8.35104 22.2222 8.29296 22.4102C8.03808 23.1499 7.83984 23.8169 7.69287 24.435C7.63184 24.6709 7.57715 24.915 7.5249 25.1528L7.49317 25.295C7.42822 25.5952 7.37402 25.9009 7.34424 26.1318C7.28711 26.3911 7.25293 26.649 7.22022 26.899C7.1792 27.1992 7.14698 27.5142 7.12012 27.8242C7.09278 28.1338 7.06787 28.455 7.0459 28.8408C7.02393 29.227 7 29.6118 7 30C7 30.3882 7.00977 30.7758 7.02978 31.1098V31.23C7.05078 31.5498 7.07178 31.8711 7.10302 32.1792C7.13379 32.4868 7.16602 32.8042 7.20313 33.0982C7.23682 33.3559 7.271 33.6138 7.31494 33.7978C7.35791 34.0982 7.41504 34.3979 7.479 34.7138L7.50879 34.8482C7.56103 35.0859 7.61621 35.3301 7.67285 35.5478C7.82715 36.1802 8.02488 36.8482 8.27296 37.562C8.33984 37.7739 8.41696 37.9742 8.48584 38.1499C8.58592 38.4218 8.69192 38.6929 8.80712 38.9502C8.95504 39.2998 9.10696 39.6372 9.25976 39.9502C9.39992 40.25 9.5508 40.543 9.70216 40.814C9.81688 41.0351 9.94288 41.2651 10.0689 41.4849L10.5689 42.3559L18.3779 37.8559L17.874 37C15.373 32.6685 15.373 27.3315 17.874 23C19.1065 20.8735 20.8735 19.1065 23 17.874C27.3442 15.4209 32.6558 15.4209 37 17.874C37.7632 18.3266 38.4814 18.8516 39.145 19.4409L32.7539 25.832C30.6065 24.4106 27.7319 24.8466 26.1026 26.8408C24.4731 28.835 24.6191 31.7393 26.4399 33.5601C28.2607 35.3809 31.165 35.5269 33.1592 33.8974C35.1534 32.2681 35.5894 29.3935 34.168 27.2461L40.5591 20.855C44.4863 25.3452 45.1167 31.8384 42.126 37L41.626 37.8682L49.435 42.3682L49.935 41.497C50.061 41.2769 50.187 41.0469 50.292 40.8462C50.4531 40.5552 50.604 40.2642 50.7319 39.9878C50.9009 39.649 51.0488 39.312 51.1929 38.9742C51.312 38.7022 51.4209 38.4311 51.5088 38.1841C51.5869 37.9839 51.6641 37.7842 51.7222 37.5962C51.977 36.8559 52.1748 36.189 52.3218 35.5708C52.3828 35.335 52.438 35.0908 52.4902 34.853L52.522 34.711C52.5869 34.4111 52.6411 34.105 52.6709 33.874C52.728 33.6152 52.7622 33.357 52.795 33.107C52.8359 32.8071 52.8682 32.4922 52.895 32.1822C52.9218 31.8721 52.9468 31.5508 52.9693 31.165C52.9912 30.7788 53 30.3882 53 30C53 29.6118 52.9902 29.2242 52.9702 28.8902ZM50.3818 24.9302C50.437 25.1441 50.4819 25.3652 50.5342 25.581L50.562 25.71C50.6172 25.9668 50.6621 26.2242 50.7129 26.5532C50.7568 26.753 50.7822 26.9531 50.813 27.167C50.8521 27.4438 50.8799 27.731 50.9131 28.021C50.9292 28.1748 50.941 28.331 50.9522 28.481C50.9619 28.6089 50.9702 28.7319 50.978 28.8398V28.9448V29H45.9668C45.8364 26.8716 45.2798 24.791 44.3301 22.8818L48.667 20.3818C48.7568 20.5518 48.8472 20.7168 48.936 20.9082C49.0859 21.208 49.2178 21.5078 49.354 21.833C49.4541 22.062 49.5459 22.29 49.6382 22.543C49.7002 22.7041 49.7632 22.8628 49.8252 23.0571C50.0591 23.7349 50.2402 24.3442 50.3818 24.9302ZM31.9839 9.10008C32.27 9.12888 32.5571 9.1572 32.8691 9.20016C33.063 9.22608 33.2549 9.25 33.519 9.3052C33.7759 9.3408 34.0342 9.38816 34.3579 9.45704C34.5928 9.5088 34.834 9.56296 35.085 9.62696C35.6528 9.76512 36.2612 9.9448 36.9712 10.1899C37.1299 10.2388 37.2808 10.2988 37.481 10.376C37.71 10.458 37.938 10.5498 38.1811 10.6558C38.4912 10.7871 38.793 10.918 39.1202 11.082C39.2862 11.1592 39.4531 11.251 39.6202 11.3379L37.1202 15.6767C35.207 14.7402 33.1265 14.1948 31 14.0718V9.02584H31.1001C31.3999 9.04688 31.6938 9.06592 31.9839 9.10008ZM22.5678 10.357C22.7192 10.2988 22.8682 10.2388 23.0562 10.1811C23.7388 9.9448 24.3472 9.76512 24.9322 9.62304C25.166 9.56296 25.4072 9.5088 25.708 9.44288C25.9658 9.38816 26.2242 9.3428 26.5508 9.292C26.7451 9.25 26.938 9.22608 27.167 9.19192C27.4429 9.15384 27.73 9.126 28.0171 9.0972C28.3042 9.06784 28.605 9.0488 28.8398 9.03224H29V14.0771C26.875 14.1982 24.7954 14.7422 22.8828 15.6767L20.3828 11.3389C20.5532 11.249 20.7178 11.1592 20.9102 11.0689C21.21 10.918 21.5098 10.7871 21.8359 10.6509C22.062 10.545 22.2901 10.4531 22.5678 10.3521V10.357ZM9.19192 27.1582C9.21776 26.958 9.2432 26.7578 9.29984 26.481C9.33688 26.2242 9.3828 25.9668 9.436 25.7178L9.46584 25.581C9.51416 25.3652 9.56592 25.1441 9.62208 24.915C9.75976 24.3442 9.94088 23.7349 10.1841 23.0308C10.2368 22.8618 10.2998 22.7031 10.3711 22.5181C10.4541 22.289 10.545 22.061 10.6499 21.8178C10.7822 21.5078 10.9141 21.207 11.0771 20.8789C11.1538 20.7129 11.2461 20.545 11.333 20.3789L15.6699 22.8789C14.7202 24.789 14.1636 26.8706 14.0332 29H9.02488C9.02488 28.9658 9.02488 28.936 9.02488 28.8999C9.04392 28.6001 9.06296 28.3062 9.09176 28.0171C9.12112 27.728 9.15184 27.4438 9.19192 27.1582ZM11.333 39.6191C11.2432 39.4492 11.1528 39.2842 11.064 39.0928C10.9141 38.793 10.7822 38.4932 10.646 38.168C10.5459 37.939 10.4541 37.711 10.3618 37.458C10.2998 37.2969 10.2368 37.1382 10.1748 36.9438C9.94088 36.2651 9.75976 35.6558 9.61816 35.0698C9.56296 34.8559 9.51808 34.6348 9.46584 34.419L9.438 34.29C9.3828 34.0332 9.33792 33.7758 9.28712 33.4468C9.2432 33.247 9.21776 33.0469 9.18704 32.833C9.14792 32.5562 9.12008 32.269 9.08688 31.979C9.0708 31.8252 9.05912 31.669 9.04784 31.519C9.03808 31.3911 9.02976 31.2681 9.022 31.1602V31.0601C9.022 31.041 9.022 31.023 9.022 31.0049H14.0532C14.1748 33.1318 14.7222 35.2124 15.6631 37.124L11.333 39.6191ZM16.6729 21.1509L12.332 18.6509C12.417 18.519 12.4961 18.3848 12.585 18.251L12.6109 18.2158C12.79 17.955 12.9702 17.6948 13.1822 17.416C13.3482 17.185 13.5239 16.9629 13.645 16.8159C13.7363 16.7222 13.8208 16.6221 13.8979 16.5161C14.041 16.3442 14.1982 16.1718 14.3369 16.0161C14.8658 15.4399 15.4267 14.8789 16.021 14.333C16.185 14.189 16.3482 14.0439 16.4668 13.9429L16.6328 13.814C16.6709 13.7832 16.707 13.7495 16.7412 13.7138C16.9619 13.5288 17.1831 13.354 17.4341 13.1729C17.7119 12.9629 17.9902 12.773 18.2612 12.584C18.3862 12.499 18.5269 12.4311 18.6538 12.3491L21.1538 16.6792C19.3794 17.8589 17.8565 19.3789 16.6729 21.1509ZM38.8491 16.6729L41.3491 12.332C41.477 12.4141 41.6079 12.4912 41.7339 12.5771C42.0098 12.7671 42.2871 12.958 42.583 13.1831C42.813 13.3472 43.0332 13.522 43.1919 13.6509C43.2442 13.7012 43.2988 13.751 43.351 13.792C43.4028 13.833 43.4512 13.8711 43.4858 13.897C43.649 14.0342 43.812 14.1792 43.9912 14.3359C44.0351 14.377 44.0771 14.4199 44.1221 14.461L40.5782 18.0049C40.0327 17.522 39.4551 17.0771 38.8491 16.6729ZM33 30C33 31.6567 31.6567 33 30 33C28.3433 33 27 31.6567 27 30C27 28.3433 28.3433 27 30 27C30.4453 27.0019 30.8848 27.1045 31.2851 27.2998L30.5112 28.0742C30.3447 28.0269 30.1729 28.0019 30 28C28.8955 28 28 28.8955 28 30C28 31.1045 28.8955 32 30 32C31.1045 32 32 31.1045 32 30C31.9976 29.8271 31.9726 29.6553 31.9248 29.4888L32.6992 28.7149C32.895 29.1152 32.9981 29.5542 33 30ZM42 19.419L45.5439 15.875C45.581 15.916 45.6211 15.955 45.6582 15.9951C45.811 16.167 45.9638 16.3389 46.0752 16.4702C46.1421 16.565 46.2158 16.6548 46.2959 16.7388C46.48 16.96 46.6548 17.1802 46.8359 17.4311L46.8491 17.4502C47.0488 17.7158 47.2349 17.9819 47.4268 18.2612C47.5132 18.3872 47.5801 18.5258 47.6621 18.6548L43.332 21.1548C42.9282 20.5464 42.4834 19.9663 42 19.419ZM50.813 32.8418C50.7871 33.042 50.7622 33.2422 50.7051 33.519C50.668 33.7758 50.6221 34.0332 50.5689 34.2822L50.539 34.419C50.4912 34.6348 50.439 34.8559 50.3828 35.085C50.2451 35.6558 50.064 36.2651 49.8208 36.9692C49.7681 37.1382 49.7051 37.2969 49.6338 37.4819C49.5508 37.711 49.46 37.939 49.355 38.1822C49.2231 38.4922 49.0908 38.793 48.9282 39.1211C48.851 39.2881 48.7588 39.4541 48.6718 39.6211L44.3369 37.1211C45.2764 35.2085 45.8218 33.127 45.9419 31H50.9751V31.1001C50.9561 31.3999 50.937 31.6938 50.9082 31.9829C50.8789 32.272 50.8482 32.5562 50.8081 32.8418H50.813Z" fill="#B86B77"/>
<path d="M19 47H41V41H19V47ZM21 43H39V45H21V43Z" fill="#B86B77"/>
</svg>
