<svg width="60" height="60" viewBox="0 0 60 60" fill="none" xmlns="http://www.w3.org/2000/svg">
<g clip-path="url(#clip0)">
<path d="M59.6745 10.9622L49.5323 0.379425C49.0789 -0.0947002 48.3239 -0.111462 47.8499 0.341683L40.5588 7.30167C40.1556 7.70488 40.0686 8.34072 40.3899 8.82224C40.5409 9.04848 40.7633 9.2384 40.9504 9.43368L39.7551 10.574C38.7785 10.282 37.723 10.3262 36.748 10.601C34.9153 11.1173 33.573 12.3709 32.1997 13.6194C30.8612 12.441 29.306 11.4842 27.7338 10.8952C25.1335 9.92104 22.5977 9.97048 20.3552 11.0298L19.1349 9.75056C19.6155 9.29008 20.1216 8.79904 19.8339 8.06352C19.7394 7.82151 12.8898 0.653821 12.6886 0.447057C12.2142 -0.0400794 11.4653 -0.158933 10.9419 0.342621L4.89259 6.13985C4.0741 6.92436 5.29053 8.19352 6.10915 7.40927L11.7467 2.00658L17.9231 8.47664L8.15994 17.8323L1.98396 11.3626L3.38078 10.0241C4.19928 9.23952 2.98296 7.97025 2.16423 8.75464L0.359151 10.4847C-0.145568 10.9673 -0.0917668 11.712 0.355635 12.2033C0.499807 12.3616 7.29534 19.5002 7.48148 19.6255C7.90931 19.9134 8.4865 19.8833 8.88826 19.5635C9.07546 19.4146 9.24058 19.2319 9.41314 19.0666L10.5535 20.262C10.2097 21.4114 9.95866 23.9842 12.9226 27.091C13.3116 27.4989 17.2259 31.5761 17.4814 31.8394C17.1491 32.3342 16.9442 32.9442 16.9058 33.6002C16.7607 36.0452 17.2663 38.6627 18.2932 40.7815C19.5039 43.2796 21.3753 44.9949 23.7323 45.7786V47.5409L23.1591 47.5412C22.5117 47.5412 21.9682 48.0834 21.9689 48.7314L21.9719 58.7989C21.9724 59.4546 22.5061 59.9877 23.1619 59.9877C23.1621 59.9877 23.1624 59.9877 23.1627 59.9877L31.2883 59.9826C32.4199 59.9817 32.4194 58.2243 31.2871 58.2243L23.73 58.2291L23.7273 49.299L37.2707 49.291L37.2734 58.2205L35.5067 58.2218C34.3749 58.2226 34.3758 59.9799 35.508 59.9799L37.8416 59.9782C38.4887 59.9782 39.0331 59.4358 39.0317 58.788L39.0287 48.722C39.0283 48.0666 38.4943 47.5329 37.8371 47.5326L37.2134 47.5329V45.8852C38.2574 45.2927 40.2173 43.6092 40.2173 39.3205C40.2173 38.7439 40.2302 29.0678 40.2302 29.0678L43.1098 26.3205C43.2233 26.6094 43.268 26.9087 43.2456 27.2225C43.1831 28.0994 42.5814 29.101 41.6279 29.9084C40.5487 30.845 40.1442 32.2695 40.6415 33.3664C41.3949 35.0628 43.7079 34.7105 44.8775 33.7183C46.749 32.1334 48.2959 29.9595 49.1219 27.7544C50.096 25.1542 50.0467 22.6185 48.9874 20.3758L50.2665 19.1555L50.6623 19.5687C51.1101 20.0367 51.8767 20.0543 52.3448 19.6065L59.6369 12.6454C60.1058 12.1975 60.123 11.4305 59.6745 10.9622ZM14.1947 25.8774C11.2514 22.7923 12.2567 20.6533 12.3394 20.4918C12.5463 20.1526 12.4853 19.7398 12.2103 19.4517L10.8119 17.986L17.999 11.1071L19.5385 12.7209C19.8172 13.0132 20.2592 13.0778 20.61 12.8778C22.558 11.7671 24.7473 11.6542 27.1169 12.5417C29.021 13.2549 30.9796 14.6509 32.3564 16.2764C32.5949 16.5575 33.0667 17.4231 32.6472 17.7559C32.2279 18.0886 31.4823 17.5442 31.2225 17.2448C30.6943 16.6211 29.2574 15.1553 27.3267 15.0177C26.2535 14.9406 25.2243 15.3118 24.3483 16.0896C24.1703 16.2476 24.064 16.4708 24.0536 16.7083C24.0432 16.9461 24.1295 17.1778 24.2928 17.3506L26.2986 19.474C26.2834 19.4738 26.2683 19.4728 26.2529 19.4728C26.2523 19.4727 26.2517 19.4727 26.2512 19.4728C25.5129 19.4728 24.8188 19.7601 24.2968 20.2818C23.7747 20.8037 23.4874 21.4977 23.4876 22.2357L23.4877 30.1669L20.931 27.5005C20.5487 27.101 19.9397 26.895 19.4959 27.3357C19.0311 27.7973 19.2594 28.395 19.6983 28.7551L23.4877 32.7072C23.4877 33.0279 23.5395 33.3846 23.4182 33.6884C23.3047 33.973 23.0467 34.1586 22.7455 34.2108C22.5299 34.2482 21.8919 34.1876 21.9099 33.8842C21.9772 32.4585 21.2253 31.183 20.0875 30.7846C19.7048 30.6472 19.2882 30.642 18.8856 30.7603C18.8857 30.7602 15.6835 27.4379 14.1947 25.8774ZM28.0316 18.6439C28.0146 18.6609 27.9988 18.6787 27.9823 18.6961L26.2944 16.9094C26.585 16.7944 26.8859 16.7488 27.2016 16.7714C27.9151 16.8223 28.7107 17.2299 29.4174 17.8935C28.896 18.0018 28.4169 18.2587 28.0316 18.6439ZM23.4879 37.4309C23.1979 37.3125 22.9487 37.137 22.7355 36.9022C22.5072 36.6505 22.3215 36.3276 22.1834 35.955C22.2907 35.9699 22.3995 35.9794 22.5096 35.9819C22.5303 35.9824 22.5511 35.9826 22.5719 35.9826C22.8887 35.9826 23.1969 35.9263 23.4879 35.8238L23.4879 37.4309ZM38.4591 39.3202C38.4591 40.5507 38.2962 41.8409 37.6909 42.9322C37.3916 43.4717 36.9778 43.9744 36.4479 44.3005C36.0123 44.5687 35.4551 44.7119 35.4551 45.3261V47.3462H25.4906V45.1189C25.4906 44.7154 25.2158 44.3637 24.8243 44.2659C22.644 43.7219 20.979 42.2916 19.8755 40.0145C18.989 38.1855 18.5349 35.8265 18.661 33.7035C18.6828 33.3302 18.917 32.4551 19.4265 32.4363C19.9899 32.4156 20.173 33.3994 20.1545 33.7902C20.1061 34.6038 20.1338 36.651 21.4338 38.0835C22.1577 38.8814 23.1607 39.3262 24.3343 39.3703C24.8251 39.3858 25.2463 38.985 25.2463 38.4918L25.2459 22.2353C25.2455 21.0923 26.9163 20.8745 27.2225 21.9654L27.2226 33.9356C27.2226 34.4212 27.6162 34.8147 28.1017 34.8147H28.1385C28.624 34.8147 29.0176 34.4212 29.0176 33.9356L28.9807 20.5973C28.9801 19.2949 30.993 19.3042 30.9944 20.5964L30.9575 33.7996C30.9575 34.0026 31.0263 34.1894 31.1416 34.3382C31.2993 34.5744 31.5682 34.7299 31.8734 34.7299C32.3589 34.7299 32.7525 34.3363 32.7525 33.8509L32.7526 22.7922C32.9839 21.9676 34.1085 21.8129 34.5676 22.522C34.7196 22.7568 34.7293 23.0064 34.7286 23.271C34.7266 23.977 34.7021 32.9483 34.7006 33.4958C34.7006 33.9682 34.8935 34.4522 35.3933 34.5799C35.9396 34.7194 36.4872 34.2918 36.4872 33.7286L36.4873 28.0018C36.6887 27.177 37.8945 26.9383 38.3039 27.7182C38.6252 28.3304 38.4705 29.1075 38.4693 29.7676C38.4657 31.6574 38.4591 38.0258 38.4591 39.3202ZM47.1393 20.6306C48.25 22.5786 48.3631 24.7678 47.4755 27.1375C46.7623 29.0416 45.3662 31.0002 43.7407 32.3769C43.4595 32.6155 42.5941 33.0874 42.2612 32.6677C41.9285 32.2483 42.4728 31.5029 42.7723 31.243C43.396 30.7148 44.8619 29.2779 44.9995 27.3473C45.0759 26.2749 44.7052 25.245 43.9275 24.3689C43.7691 24.1906 43.545 24.084 43.3066 24.0742C43.0665 24.0626 42.8359 24.1518 42.6633 24.3163L39.9059 26.9469C39.4404 26.0748 38.5211 25.4798 37.4657 25.4798C37.465 25.4798 37.4642 25.4798 37.4635 25.4798C37.1245 25.4798 36.7951 25.5405 36.4871 25.6564V23.0632C36.4856 21.5406 35.2454 20.3023 33.7227 20.3023C33.7218 20.3022 33.7212 20.3023 33.7207 20.3023C33.3838 20.3023 33.056 20.3621 32.7498 20.4767C32.7359 20.1596 32.6681 19.8562 32.5557 19.5753C33.5931 19.4901 34.3585 18.7602 34.5139 17.7359C34.6811 16.6336 34.1637 15.655 33.4507 14.8578C33.6559 14.6706 33.8747 14.4679 34.1395 14.2154C37.2246 11.272 39.3639 12.2771 39.5251 12.3598C39.8645 12.5667 40.2772 12.5057 40.5653 12.2308L42.0311 10.8325L48.9099 18.0194L47.2961 19.559C47.004 19.8377 46.9393 20.2797 47.1393 20.6306ZM51.5403 17.9434L42.1847 8.18032L48.6544 2.00435L58.0104 11.767L51.5403 17.9434Z" fill="#B86B77"/>
<path d="M52.1522 15.016C52.3702 15.016 52.5889 14.9354 52.759 14.773L54.4846 13.1267C55.3049 12.3438 54.0915 11.0724 53.2709 11.8545L51.5453 13.5008C50.985 14.0354 51.3726 15.016 52.1522 15.016Z" fill="#B86B77"/>
<path d="M14.1164 8.74408C14.8751 8.74408 15.2743 7.8052 14.7523 7.25817L13.106 5.53256C12.3235 4.71231 11.0512 5.92593 11.8339 6.74619L13.4802 8.47176C13.653 8.65288 13.8846 8.74408 14.1164 8.74408Z" fill="#B86B77"/>
<path d="M25.1847 52.3676V54.7491C25.1847 55.8829 26.9429 55.8829 26.9429 54.7491V52.3676C26.9429 51.2338 25.1847 51.2338 25.1847 52.3676Z" fill="#B86B77"/>
</g>
<defs>
<clipPath id="clip0">
<rect width="60" height="60" fill="white"/>
</clipPath>
</defs>
</svg>
