<svg width="60" height="60" viewBox="0 0 60 60" fill="none" xmlns="http://www.w3.org/2000/svg">
<path d="M38.7097 58.0646V51.1443C38.7097 50.7346 38.7938 50.3382 38.9601 49.9654L42.1634 42.7578C42.4394 42.1355 42.5806 41.4735 42.5806 40.7912V38.7097H55.1613V4.83871H48.3871V0H37.7419C34.3751 0 31.4498 1.91989 30 4.72152C28.5502 1.91989 25.6249 0 22.2581 0H11.6129V4.83871H4.83871V38.7097H17.4194V40.6102C17.4194 41.431 17.6301 42.2428 18.028 42.9601L21.8933 49.9162C22.1314 50.3448 22.2581 50.8325 22.2581 51.3253V58.0646H0V60H60V58.0646H38.7097ZM53.2258 6.77419V36.7742H32.9032V37.7419C32.9032 39.3424 31.6005 40.6452 30 40.6452C29.879 40.6452 29.7618 40.6154 29.6418 40.5998C29.1301 38.4502 28.0645 36.4732 26.5085 34.8387H48.3871V6.77419H53.2258ZM13.5484 1.93548H22.2581C25.9925 1.93548 29.0322 4.97433 29.0322 8.70968V16.4516H30.9678V8.70968C30.9678 4.97433 34.0075 1.93548 37.7419 1.93548H46.4516V32.9032H30.9678V18.3871H29.0322V32.9032H25.1613V28.0645C25.1613 24.8622 22.5572 22.2581 19.3549 22.2581C18.2874 22.2581 17.4194 23.1261 17.4194 24.1935V32.9032H13.5484V1.93548ZM6.77419 36.7742V6.77419H11.6129V34.8387H17.4194V36.7742H6.77419ZM19.7196 42.0202C19.4814 41.5907 19.3549 41.103 19.3549 40.6102V24.1935C21.4898 24.1935 23.2258 25.9296 23.2258 28.0645V34.2717L24.9269 35.9728C26.9508 37.9966 28.0645 40.6867 28.0645 43.5484H30C30 43.2223 29.9769 42.9001 29.9527 42.5778C29.9688 42.5778 29.9844 42.5806 30 42.5806C32.3371 42.5806 34.292 40.915 34.7409 38.7097H40.6452V40.7912C40.6452 41.2009 40.561 41.5973 40.3947 41.9702L37.1914 49.1777C37.0279 49.5453 36.9273 49.9309 36.8593 50.3226H24.0792C23.9795 49.8534 23.8188 49.3974 23.585 48.9754L19.7196 42.0202ZM24.1935 56.129H32.9032V54.1935H24.1935V52.2581H36.7742V54.1935H34.8387V56.129H36.7742V58.0646H24.1935V56.129Z" fill="#B86B77"/>
<path d="M37.7419 25.1613H39.6774V27.0968H37.7419V25.1613Z" fill="#B86B77"/>
<path d="M41.6129 25.1613H43.5484V27.0968H41.6129V25.1613Z" fill="#B86B77"/>
<path d="M33.871 25.1613H35.8065V27.0968H33.871V25.1613Z" fill="#B86B77"/>
<path d="M32.9032 29.0322H44.5162V30.9678H32.9032V29.0322Z" fill="#B86B77"/>
<path d="M32.9032 21.2903H44.5162V23.2258H32.9032V21.2903Z" fill="#B86B77"/>
<path d="M32.9032 14.5162H44.5162V16.4516H32.9032V14.5162Z" fill="#B86B77"/>
<path d="M32.9032 10.6451H44.5162V12.5806H32.9032V10.6451Z" fill="#B86B77"/>
<path d="M32.9032 6.77419H44.5162V8.70968H32.9032V6.77419Z" fill="#B86B77"/>
<path d="M20.3226 10.6451H22.2581V12.5806H20.3226V10.6451Z" fill="#B86B77"/>
<path d="M24.1935 10.6451H26.129V12.5806H24.1935V10.6451Z" fill="#B86B77"/>
<path d="M16.4516 10.6451H18.3871V12.5806H16.4516V10.6451Z" fill="#B86B77"/>
<path d="M15.4838 6.77419H27.0968V8.70968H15.4838V6.77419Z" fill="#B86B77"/>
<path d="M15.4838 14.5162H27.0968V16.4516H15.4838V14.5162Z" fill="#B86B77"/>
<path d="M15.4838 18.3871H27.0968V20.3226H15.4838V18.3871Z" fill="#B86B77"/>
</svg>
