<svg enable-background="new 0 0 32 32" viewBox="0 0 32 32" xmlns="http://www.w3.org/2000/svg"><g id="Grid" display="none"/><g id="American_Football"/><g id="Chemistry"/><g id="Book"><path d="m14.953 11.421h7.561c.885 0 1.604-.72 1.604-1.604v-2.357c0-.884-.72-1.604-1.604-1.604h-7.561c-.884 0-1.604.72-1.604 1.604v2.356c0 .885.72 1.605 1.604 1.605zm.196-3.765h7.168v1.965h-7.168z"/><path d="m28.547 4.156c0-1.685-1.371-3.056-3.056-3.056h-18.23c-2.1 0-3.808 1.708-3.808 3.808v19.164c0 .002.001.003.001.005v.925c0 2.098 1.706 3.804 3.804 3.804h.394c.497 0 .9-.403.9-.9s-.403-.9-.9-.9h-.394c-1.105 0-2.004-.899-2.004-2.004v-.94c.003-.526.213-1.037.581-1.405.387-.387.88-.592 1.425-.592h19.485v3.693c0 .688-.563 1.247-1.256 1.247h-5.601c-.497 0-.9.403-.9.9s.403.9.9.9h5.601c1.686 0 3.057-1.367 3.057-3.047v-4.588c0-.002.001-.003.001-.005zm-1.801 0v16.11h-16.224v-17.366h14.969c.693 0 1.255.563 1.255 1.256zm-21.493 16.679v-15.927c0-1.107.901-2.008 2.008-2.008h1.461v17.366h-1.462c-.72 0-1.409.198-2.007.569z"/><path d="m24.072 25.438c.497 0 .9-.403.9-.9s-.403-.9-.9-.9h-16.144c-.497 0-.9.403-.9.9s.403.9.9.9h2.455v4.562c0 .306.155.591.413.757.256.164.58.188.86.063l2.118-.962 2.118.962c.119.054.246.081.373.081.17 0 .34-.048.487-.143.257-.166.413-.451.413-.757v-4.562h6.907zm-8.709 3.165-1.218-.554c-.237-.107-.508-.107-.745 0l-1.218.554v-3.165h3.181z"/></g><g id="Backpack"/><g id="Bell"/><g id="Exam"/><g id="Report"/><g id="Report_Card"/><g id="Basketball"/><g id="Printer"/><g id="Notebook_1_"/><g id="School_1_"/><g id="Diploma_1_"/><g id="Presentation_1_"/><g id="Whiteboard_1_"/><g id="Online_Learning_1_"/><g id="Class_1_"/><g id="School_Bus_1_"/><g id="Test_1_"/><g id="Medal_1_"/><g id="Subjects_Schedule_1_"/><g id="Diary_1_"/><g id="Uniform_1_"/><g id="Ruler"/><g id="Alarm"/></svg>