<svg fill="none" height="25" viewBox="0 0 24 25" width="24" xmlns="http://www.w3.org/2000/svg"><g clip-rule="evenodd" fill="rgb(0,0,0)" fill-rule="evenodd"><path d="m6 8.0271c.41421 0 .75.33579.75.75 0 .96401.00159 1.6116.06654 2.0946.06204.4615.16926.659.29958.7893.13031.1303.32781.2375.78927.2996.48304.0649 1.1306.0665 2.09461.0665h4c.964 0 1.6116-.0016 2.0946-.0665.4615-.0621.659-.1693.7893-.2996s.2375-.3278.2996-.7893c.0649-.483.0665-1.13059.0665-2.0946 0-.41421.3358-.75.75-.75s.75.33579.75.75v.05199c0 .89849.0001 1.64771-.0799 2.24251-.0844.6278-.2701 1.1946-.7256 1.65-.4554.4555-1.0222.6412-1.65.7256-.5948.08-1.344.0799-2.2425.0799h-1.302v3.25c0 .4142-.3358.75-.75.75s-.75-.3358-.75-.75v-3.25h-1.30199c-.89849 0-1.64771.0001-2.24249-.0799-.62779-.0844-1.19459-.2701-1.65006-.7256-.45547-.4554-.64114-1.0222-.72555-1.65-.07997-.5948-.07994-1.34402-.07991-2.2425 0-.01728 0-.03461 0-.052 0-.41421.33579-.75.75-.75z"/><path d="m6 5.5271c-.69036 0-1.25.55964-1.25 1.25s.55964 1.25 1.25 1.25 1.25-.55964 1.25-1.25-.55964-1.25-1.25-1.25zm-2.75 1.25c0-1.51878 1.23122-2.75 2.75-2.75s2.75 1.23122 2.75 2.75-1.23122 2.75-2.75 2.75-2.75-1.23122-2.75-2.75z"/><path d="m12 17.5271c-.6904 0-1.25.5596-1.25 1.25s.5596 1.25 1.25 1.25 1.25-.5596 1.25-1.25-.5596-1.25-1.25-1.25zm-2.75 1.25c0-1.5188 1.2312-2.75 2.75-2.75s2.75 1.2312 2.75 2.75-1.2312 2.75-2.75 2.75-2.75-1.2312-2.75-2.75z"/><path d="m18 5.5271c-.6904 0-1.25.55964-1.25 1.25s.5596 1.25 1.25 1.25 1.25-.55964 1.25-1.25-.5596-1.25-1.25-1.25zm-2.75 1.25c0-1.51878 1.2312-2.75 2.75-2.75s2.75 1.23122 2.75 2.75-1.2312 2.75-2.75 2.75-2.75-1.23122-2.75-2.75z"/></g></svg>