<svg height="480pt" viewBox="-45 0 480 480" width="480pt" xmlns="http://www.w3.org/2000/svg" xmlns:xlink="http://www.w3.org/1999/xlink"><linearGradient id="a"><stop offset="0" stop-color="#fff200"/><stop offset="1" stop-color="#cd118c"/></linearGradient><linearGradient id="b" gradientUnits="userSpaceOnUse" x1="-74.408" x2="381.592" xlink:href="#a" y1="452.048" y2="-27.952"/><linearGradient id="c" gradientUnits="userSpaceOnUse" x1="-6.92" x2="449.08" xlink:href="#a" y1="516.16" y2="36.16"/><path d="m267.441406 168c0-39.765625-32.238281-72-72-72-39.765625 0-72 32.234375-72 72s32.234375 72 72 72c39.746094-.042969 71.953125-32.253906 72-72zm-128 0c0-30.929688 25.070313-56 56-56 30.925782 0 56 25.070312 56 56s-25.074218 56-56 56c-30.914062-.035156-55.964844-25.085938-56-56zm0 0" fill="url(#b)"/><path d="m0 480h390.878906l-58.398437-160h-30.746094c36.90625-47.304688 69.707031-101.359375 69.707031-144 0-97.203125-78.800781-176-176-176-97.203125 0-176 78.796875-176 176 0 42.640625 32.796875 96.695312 69.703125 144h-30.738281zm195.441406-464c88.320313.101562 159.898438 71.675781 160 160 0 79.03125-131.425781 209.535156-160 236.976562-28.578125-27.433593-160-157.914062-160-236.976562.101563-88.324219 71.675782-159.898438 160-160zm-93.503906 320c27.390625 33.078125 56.804688 64.425781 88.070312 93.871094l5.433594 5.015625 5.429688-5.015625c31.265625-29.445313 60.679687-60.792969 88.074218-93.871094h32.335938l46.71875 128h-345.121094l46.722656-128zm0 0" fill="url(#c)"/></svg>